<svg width="52" height="42" viewBox="0 0 52 42" fill="none" xmlns="http://www.w3.org/2000/svg">
<path d="M48.234 22.4313C48.234 22.0171 47.8982 21.6813 47.484 21.6813C47.0698 21.6813 46.734 22.0171 46.734 22.4313H48.234ZM5.37137 22.4313C5.37137 22.0171 5.03558 21.6813 4.62137 21.6813C4.20716 21.6813 3.87137 22.0171 3.87137 22.4313H5.37137ZM1.94245 27.7892L1.24021 28.0525L2.69245 27.7892H1.94245ZM50.1629 27.7892H49.4129L50.8841 27.9952L50.1629 27.7892ZM26.8027 3.67892C26.8027 3.2647 26.4669 2.92892 26.0527 2.92892C25.6385 2.92892 25.3027 3.2647 25.3027 3.67892H26.8027ZM25.3027 10.3762C25.3027 10.7904 25.6385 11.1262 26.0527 11.1262C26.4669 11.1262 26.8027 10.7904 26.8027 10.3762H25.3027ZM22.0343 6.25C21.6201 6.25 21.2843 6.58579 21.2843 7C21.2843 7.41421 21.6201 7.75 22.0343 7.75V6.25ZM30.0711 7.75C30.4853 7.75 30.8211 7.41421 30.8211 7C30.8211 6.58579 30.4853 6.25 30.0711 6.25V7.75ZM23.6917 4.0838C23.3735 3.81863 22.9006 3.86162 22.6354 4.17983C22.3702 4.49803 22.4132 4.97096 22.7314 5.23613L23.6917 4.0838ZM28.4143 9.97183C28.7325 10.237 29.2054 10.194 29.4706 9.8758C29.7358 9.55759 29.6928 9.08467 29.3746 8.8195L28.4143 9.97183ZM22.7314 8.81965C22.4132 9.08482 22.3702 9.55774 22.6354 9.87595C22.9006 10.1942 23.3735 10.2372 23.6917 9.97198L22.7314 8.81965ZM29.3746 5.23628C29.6928 4.97111 29.7358 4.49818 29.4706 4.17997C29.2054 3.86177 28.7325 3.81877 28.4143 4.08395L29.3746 5.23628ZM49.4129 27.1194C49.4129 30.6257 46.9711 33.9387 42.7233 36.4166C38.4939 38.8837 32.6016 40.4337 26.0527 40.4337V41.9337C32.8195 41.9337 38.9823 40.3354 43.4791 37.7122C47.9575 35.0998 50.9129 31.3807 50.9129 27.1194H49.4129ZM26.0527 40.4337C19.5038 40.4337 13.6115 38.8837 9.38208 36.4166C5.13427 33.9387 2.69245 30.6257 2.69245 27.1194H1.19245C1.19245 31.3807 4.14789 35.0998 8.62628 37.7122C13.1231 40.3354 19.2859 41.9337 26.0527 41.9337V40.4337ZM46.734 22.4313C46.734 23.2495 46.2946 24.1187 45.3023 24.9984C44.3109 25.8774 42.8335 26.7032 40.9436 27.4119C37.1692 28.8273 31.9047 29.7181 26.0527 29.7181V31.2181C32.0369 31.2181 37.488 30.3098 41.4703 28.8164C43.4586 28.0708 45.1198 27.1648 46.2974 26.1208C47.4741 25.0775 48.234 23.8325 48.234 22.4313H46.734ZM26.0527 29.7181C20.2007 29.7181 14.9362 28.8273 11.1618 27.4119C9.27185 26.7032 7.7945 25.8774 6.8031 24.9984C5.81084 24.1187 5.37137 23.2495 5.37137 22.4313H3.87137C3.87137 23.8325 4.63129 25.0775 5.80799 26.1208C6.98557 27.1648 8.64676 28.0708 10.6351 28.8164C14.6174 30.3098 20.0685 31.2181 26.0527 31.2181V29.7181ZM2.69245 27.7892C2.69245 24.4864 5.11097 21.3386 9.36841 18.9734C13.6004 16.6223 19.4978 15.1446 26.0527 15.1446V13.6446C19.2919 13.6446 13.1341 15.1654 8.63995 17.6621C4.1712 20.1448 1.19245 23.6943 1.19245 27.7892H2.69245ZM26.0527 15.1446C32.6076 15.1446 38.5049 16.6223 42.737 18.9734C46.9944 21.3386 49.4129 24.4864 49.4129 27.7892H50.9129C50.9129 23.6943 47.9342 20.1448 43.4654 17.6621C38.9713 15.1654 32.8135 13.6446 26.0527 13.6446V15.1446ZM2.6447 27.5258C1.69796 25.0012 0.880473 18.5182 3.62533 12.7057C4.98738 9.82133 7.22831 7.09633 10.7877 5.08535C14.3537 3.07068 19.2839 1.75 26.0527 1.75V0.25C19.0922 0.25 13.8928 1.60824 10.0499 3.77937C6.20046 5.9542 3.75328 8.92189 2.26896 12.0651C-0.678937 18.3077 0.177776 25.2193 1.24021 28.0525L2.6447 27.5258ZM26.0527 1.75C37.9104 1.75 44.3303 6.01667 47.5126 11.2672C50.7273 16.5714 50.7395 23.0422 49.4418 27.5831L50.8841 27.9952C52.2659 23.1599 52.2781 16.2362 48.7954 10.4898C45.2802 4.68981 38.3052 0.25 26.0527 0.25V1.75ZM25.3027 3.67892V10.3762H26.8027V3.67892H25.3027ZM22.0343 7.75L30.0711 7.75V6.25L22.0343 6.25V7.75ZM22.7314 5.23613L28.4143 9.97183L29.3746 8.8195L23.6917 4.0838L22.7314 5.23613ZM23.6917 9.97198L29.3746 5.23628L28.4143 4.08395L22.7314 8.81965L23.6917 9.97198Z" fill="#002F86"/>
</svg>
